<mxfile host="app.diagrams.net" modified="2023-07-26T20:03:52.286Z" agent="Mozilla/5.0 (Windows NT 10.0; Win64; x64) AppleWebKit/537.36 (KHTML, like Gecko) Chrome/115.0.0.0 Safari/537.36" version="21.6.5" etag="0k6Nee7pHHP3a4h5tIQ5" type="github">
  <diagram name="Page-1" id="KiF43EN3qJZYuRpHwaST">
    <mxGraphModel>
      <root>
        <mxCell id="0" />
        <mxCell id="1" parent="0" />
      </root>
    </mxGraphModel>
  </diagram>
</mxfile>
